G04 #@! TF.FileFunction,Legend,Bot*
%FSLAX46Y46*%
G04 Gerber Fmt 4.6, Leading zero omitted, Abs format (unit mm)*
G04 Created by KiCad (PCBNEW 4.0.7) date 06/19/18 01:15:35*
%MOMM*%
%LPD*%
G01*
G04 APERTURE LIST*
%ADD10C,0.100000*%
%ADD11C,0.300000*%
G04 APERTURE END LIST*
D10*
D11*
X176532857Y-93503571D02*
X175675714Y-93503571D01*
X176104285Y-95003571D02*
X176104285Y-93503571D01*
X175175714Y-95003571D02*
X175175714Y-94003571D01*
X175175714Y-93503571D02*
X175247143Y-93575000D01*
X175175714Y-93646429D01*
X175104286Y-93575000D01*
X175175714Y-93503571D01*
X175175714Y-93646429D01*
X174461428Y-94003571D02*
X174461428Y-95003571D01*
X174461428Y-94146429D02*
X174390000Y-94075000D01*
X174247142Y-94003571D01*
X174032857Y-94003571D01*
X173890000Y-94075000D01*
X173818571Y-94217857D01*
X173818571Y-95003571D01*
X173104285Y-95003571D02*
X173104285Y-93503571D01*
X172961428Y-94432143D02*
X172532857Y-95003571D01*
X172532857Y-94003571D02*
X173104285Y-94575000D01*
X171318571Y-94932143D02*
X171461428Y-95003571D01*
X171747142Y-95003571D01*
X171889999Y-94932143D01*
X171961428Y-94789286D01*
X171961428Y-94217857D01*
X171889999Y-94075000D01*
X171747142Y-94003571D01*
X171461428Y-94003571D01*
X171318571Y-94075000D01*
X171247142Y-94217857D01*
X171247142Y-94360714D01*
X171961428Y-94503571D01*
X170604285Y-95003571D02*
X170604285Y-94003571D01*
X170604285Y-94289286D02*
X170532857Y-94146429D01*
X170461428Y-94075000D01*
X170318571Y-94003571D01*
X170175714Y-94003571D01*
X169675714Y-94003571D02*
X169675714Y-95503571D01*
X169675714Y-94075000D02*
X169532857Y-94003571D01*
X169247143Y-94003571D01*
X169104286Y-94075000D01*
X169032857Y-94146429D01*
X168961428Y-94289286D01*
X168961428Y-94717857D01*
X169032857Y-94860714D01*
X169104286Y-94932143D01*
X169247143Y-95003571D01*
X169532857Y-95003571D01*
X169675714Y-94932143D01*
X168104285Y-95003571D02*
X168247143Y-94932143D01*
X168318571Y-94789286D01*
X168318571Y-93503571D01*
X166890000Y-94003571D02*
X166890000Y-95003571D01*
X167532857Y-94003571D02*
X167532857Y-94789286D01*
X167461429Y-94932143D01*
X167318571Y-95003571D01*
X167104286Y-95003571D01*
X166961429Y-94932143D01*
X166890000Y-94860714D01*
X166175714Y-94003571D02*
X166175714Y-95003571D01*
X166175714Y-94146429D02*
X166104286Y-94075000D01*
X165961428Y-94003571D01*
X165747143Y-94003571D01*
X165604286Y-94075000D01*
X165532857Y-94217857D01*
X165532857Y-95003571D01*
X164818571Y-95003571D02*
X164818571Y-93503571D01*
X164675714Y-94432143D02*
X164247143Y-95003571D01*
X164247143Y-94003571D02*
X164818571Y-94575000D01*
X163604285Y-94860714D02*
X163532857Y-94932143D01*
X163604285Y-95003571D01*
X163675714Y-94932143D01*
X163604285Y-94860714D01*
X163604285Y-95003571D01*
X162247142Y-94932143D02*
X162389999Y-95003571D01*
X162675713Y-95003571D01*
X162818571Y-94932143D01*
X162889999Y-94860714D01*
X162961428Y-94717857D01*
X162961428Y-94289286D01*
X162889999Y-94146429D01*
X162818571Y-94075000D01*
X162675713Y-94003571D01*
X162389999Y-94003571D01*
X162247142Y-94075000D01*
X161389999Y-95003571D02*
X161532857Y-94932143D01*
X161604285Y-94860714D01*
X161675714Y-94717857D01*
X161675714Y-94289286D01*
X161604285Y-94146429D01*
X161532857Y-94075000D01*
X161389999Y-94003571D01*
X161175714Y-94003571D01*
X161032857Y-94075000D01*
X160961428Y-94146429D01*
X160889999Y-94289286D01*
X160889999Y-94717857D01*
X160961428Y-94860714D01*
X161032857Y-94932143D01*
X161175714Y-95003571D01*
X161389999Y-95003571D01*
X160247142Y-95003571D02*
X160247142Y-94003571D01*
X160247142Y-94146429D02*
X160175714Y-94075000D01*
X160032856Y-94003571D01*
X159818571Y-94003571D01*
X159675714Y-94075000D01*
X159604285Y-94217857D01*
X159604285Y-95003571D01*
X159604285Y-94217857D02*
X159532856Y-94075000D01*
X159389999Y-94003571D01*
X159175714Y-94003571D01*
X159032856Y-94075000D01*
X158961428Y-94217857D01*
X158961428Y-95003571D01*
M02*
