M48
;DRILL file {KiCad 4.0.7} date 06/19/18 22:22:38
;FORMAT={-:-/ absolute / inch / decimal}
FMAT,2
INCH,TZ
T1C0.026
T2C0.031
T3C0.034
T4C0.051
T5C0.125
T6C0.047
T7C0.118
%
G90
G05
M72
T1
X7.2217Y-4.3939
X7.2217Y-4.4939
X7.2717Y-4.3439
X7.2717Y-4.5439
X7.3217Y-4.3939
X7.3217Y-4.4939
T3
X6.5717Y-4.3675
X6.5717Y-4.4427
X6.5717Y-4.5179
X6.6469Y-4.3675
X6.6469Y-4.4427
X6.6469Y-4.5179
X6.722Y-4.3675
X6.722Y-4.4427
X6.722Y-4.5179
X6.7972Y-4.3675
X6.7972Y-4.4427
X6.7972Y-4.5179
X6.8724Y-4.3675
X6.8724Y-4.4427
X6.8724Y-4.5179
X6.9476Y-4.3675
X6.9476Y-4.4427
X6.9476Y-4.5179
X7.0228Y-4.3675
X7.0228Y-4.4427
X7.0228Y-4.5179
X7.098Y-4.3675
X7.098Y-4.4427
X7.098Y-4.5179
T4
X5.85Y-2.975
X5.925Y-2.775
X6.Y-2.975
X6.075Y-2.775
X6.15Y-2.975
X6.225Y-2.775
X6.3Y-2.975
X6.375Y-2.775
X6.45Y-2.975
X6.525Y-2.775
X6.6Y-2.975
X6.675Y-2.775
X6.75Y-2.975
X6.825Y-2.775
X6.9Y-2.975
X6.975Y-2.775
X7.05Y-2.975
X7.125Y-2.775
X7.2Y-2.975
X7.275Y-2.775
X7.35Y-2.975
T5
X6.3205Y-4.5778
X7.5724Y-4.5778
T6
X5.5665Y-4.5994
X5.5665Y-4.6978
X5.7634Y-4.4026
X5.9602Y-4.5994
X5.9602Y-4.6978
T7
X5.5606Y-2.5506
X5.5606Y-2.777
X7.6394Y-2.5506
X7.6394Y-2.777
T2
X5.5665Y-4.4163G85X5.5665Y-4.3888
G05
X5.7496Y-4.5994G85X5.7772Y-4.5994
G05
X5.9602Y-4.4163G85X5.9602Y-4.3888
G05
T7
X5.5606Y-2.5506G85X5.5606Y-2.777
G05
X7.6394Y-2.5506G85X7.6394Y-2.777
G05
T0
M30
